<?xml version="1.0" encoding="UTF-8"?>
<svg xmlns="http://www.w3.org/2000/svg" width="192" height="116" viewBox="0 0 192 116" fill="none">
  <path d="M3.57399 1.88456C2.65089 1.39781 2.99685 0 4.04041 0H189C190.657 0 192 1.34315 192 3V29C192 30.6569 190.657 32 189 32H18.1717C16.5148 32 15.1717 30.6569 15.1717 29V12.2225C15.1717 9.62543 13.7339 7.24186 11.4367 6.03053L3.57399 1.88456Z" fill="#054640"></path>
  <path d="M27.392 20L31.074 9.78H33.398L37.192 20H35.778L32.348 10.676L33.02 11.012H31.368L32.082 10.676L28.764 20H27.392ZM29.59 16.948L30.052 15.716H34.462L34.924 16.948H29.59ZM41.7 20.084C41.14 20.084 40.6547 20.0047 40.244 19.846C39.8427 19.6873 39.53 19.4167 39.306 19.034C39.0913 18.642 38.984 18.1147 38.984 17.452V10.256H40.272V17.62C40.272 18.0213 40.3793 18.334 40.594 18.558C40.818 18.7727 41.1307 18.88 41.532 18.88H42.848V20.084H41.7ZM37.696 13.532V12.524H42.848V13.532H37.696ZM47.8723 20.252C47.2189 20.252 46.6543 20.14 46.1783 19.916C45.7023 19.692 45.3149 19.398 45.0163 19.034C44.7176 18.6607 44.4936 18.2453 44.3443 17.788C44.2043 17.3307 44.1343 16.864 44.1343 16.388V16.136C44.1343 15.6507 44.2043 15.1793 44.3443 14.722C44.4936 14.2647 44.7176 13.854 45.0163 13.49C45.3149 13.1167 45.6929 12.8227 46.1503 12.608C46.6169 12.384 47.1629 12.272 47.7883 12.272C48.6003 12.272 49.2676 12.4493 49.7903 12.804C50.3223 13.1493 50.7143 13.5973 50.9663 14.148C51.2276 14.6987 51.3583 15.2867 51.3583 15.912V16.514H44.7223V15.506H50.3783L50.0703 16.052C50.0703 15.52 49.9863 15.0627 49.8183 14.68C49.6503 14.288 49.3983 13.9847 49.0623 13.77C48.7263 13.5553 48.3016 13.448 47.7883 13.448C47.2563 13.448 46.8129 13.5693 46.4583 13.812C46.1129 14.0547 45.8516 14.386 45.6743 14.806C45.5063 15.226 45.4223 15.7113 45.4223 16.262C45.4223 16.794 45.5063 17.2747 45.6743 17.704C45.8516 18.124 46.1223 18.46 46.4863 18.712C46.8503 18.9547 47.3123 19.076 47.8723 19.076C48.4603 19.076 48.9363 18.9453 49.3003 18.684C49.6736 18.4227 49.8976 18.1193 49.9723 17.774H51.2323C51.1296 18.2873 50.9243 18.7307 50.6163 19.104C50.3083 19.4773 49.9209 19.762 49.4543 19.958C48.9876 20.154 48.4603 20.252 47.8723 20.252ZM53.2665 20V12.524H54.3305V15.73H54.1625C54.1625 14.9927 54.2605 14.372 54.4565 13.868C54.6618 13.3547 54.9698 12.9673 55.3805 12.706C55.7912 12.4353 56.3092 12.3 56.9345 12.3H56.9905C57.9332 12.3 58.6285 12.594 59.0765 13.182C59.5338 13.77 59.7625 14.6193 59.7625 15.73V20H58.4185V15.45C58.4185 14.8713 58.2552 14.4093 57.9285 14.064C57.6018 13.7093 57.1538 13.532 56.5845 13.532C55.9965 13.532 55.5205 13.714 55.1565 14.078C54.7925 14.442 54.6105 14.9273 54.6105 15.534V20H53.2665ZM65.3436 20.252C64.8116 20.252 64.3216 20.154 63.8736 19.958C63.4256 19.762 63.0336 19.4867 62.6976 19.132C62.3709 18.7773 62.1143 18.3667 61.9276 17.9C61.7503 17.4333 61.6616 16.9293 61.6616 16.388V16.136C61.6616 15.604 61.7503 15.1047 61.9276 14.638C62.1049 14.1713 62.3523 13.7607 62.6696 13.406C62.9963 13.0513 63.3789 12.776 63.8176 12.58C64.2656 12.3747 64.7603 12.272 65.3016 12.272C65.8709 12.272 66.3889 12.3933 66.8556 12.636C67.3223 12.8693 67.7049 13.238 68.0036 13.742C68.3023 14.246 68.4703 14.8993 68.5076 15.702L67.9476 14.806V9.78H69.2916V20H68.2276V16.682H68.6196C68.5823 17.5313 68.4049 18.222 68.0876 18.754C67.7703 19.2767 67.3689 19.6593 66.8836 19.902C66.4076 20.1353 65.8943 20.252 65.3436 20.252ZM65.5256 19.076C65.9829 19.076 66.3983 18.9733 66.7716 18.768C67.1449 18.5627 67.4436 18.2687 67.6676 17.886C67.8916 17.494 68.0036 17.0367 68.0036 16.514V15.87C68.0036 15.3567 67.8869 14.9227 67.6536 14.568C67.4296 14.204 67.1263 13.9287 66.7436 13.742C66.3703 13.546 65.9596 13.448 65.5116 13.448C65.0169 13.448 64.5783 13.5647 64.1956 13.798C63.8223 14.0313 63.5283 14.358 63.3136 14.778C63.1083 15.198 63.0056 15.6927 63.0056 16.262C63.0056 16.8313 63.1129 17.3307 63.3276 17.76C63.5423 18.18 63.8409 18.5067 64.2236 18.74C64.6063 18.964 65.0403 19.076 65.5256 19.076ZM76.3959 20V17.76H76.1719V15.17C76.1719 14.6567 76.0366 14.2693 75.7659 14.008C75.5046 13.7467 75.1173 13.616 74.6039 13.616C74.3146 13.616 74.0159 13.6207 73.7079 13.63C73.3999 13.6393 73.1059 13.6487 72.8259 13.658C72.5459 13.6673 72.3033 13.6813 72.0979 13.7V12.524C72.3033 12.5053 72.5179 12.4913 72.7419 12.482C72.9753 12.4633 73.2133 12.454 73.4559 12.454C73.6986 12.4447 73.9319 12.44 74.1559 12.44C74.9213 12.44 75.5466 12.5333 76.0319 12.72C76.5173 12.8973 76.8766 13.1913 77.1099 13.602C77.3433 14.0127 77.4599 14.568 77.4599 15.268V20H76.3959ZM73.9459 20.196C73.3859 20.196 72.9006 20.1027 72.4899 19.916C72.0886 19.72 71.7759 19.44 71.5519 19.076C71.3373 18.712 71.2299 18.2733 71.2299 17.76C71.2299 17.228 71.3466 16.7847 71.5799 16.43C71.8226 16.0753 72.1726 15.8093 72.6299 15.632C73.0873 15.4453 73.6379 15.352 74.2819 15.352H76.3119V16.36H74.2259C73.6846 16.36 73.2693 16.4907 72.9799 16.752C72.6906 17.0133 72.5459 17.3493 72.5459 17.76C72.5459 18.1707 72.6906 18.502 72.9799 18.754C73.2693 19.006 73.6846 19.132 74.2259 19.132C74.5433 19.132 74.8466 19.076 75.1359 18.964C75.4253 18.8427 75.6633 18.6467 75.8499 18.376C76.0459 18.096 76.1533 17.7133 76.1719 17.228L76.5359 17.76C76.4893 18.292 76.3586 18.74 76.1439 19.104C75.9386 19.4587 75.6493 19.7293 75.2759 19.916C74.9119 20.1027 74.4686 20.196 73.9459 20.196ZM83.1122 20V12.524H84.1762V15.73H84.0082C84.0082 15.002 84.1016 14.386 84.2882 13.882C84.4842 13.3687 84.7736 12.9767 85.1562 12.706C85.5389 12.4353 86.0242 12.3 86.6122 12.3H86.6682C87.2562 12.3 87.7416 12.4353 88.1242 12.706C88.5162 12.9767 88.8056 13.3687 88.9922 13.882C89.1789 14.386 89.2722 15.002 89.2722 15.73H88.8802C88.8802 15.002 88.9782 14.386 89.1742 13.882C89.3702 13.3687 89.6596 12.9767 90.0422 12.706C90.4342 12.4353 90.9242 12.3 91.5122 12.3H91.5682C92.1562 12.3 92.6462 12.4353 93.0382 12.706C93.4302 12.9767 93.7196 13.3687 93.9062 13.882C94.1022 14.386 94.2002 15.002 94.2002 15.73V20H92.8562V15.436C92.8562 14.8293 92.7069 14.3627 92.4082 14.036C92.1096 13.7 91.6942 13.532 91.1622 13.532C90.6116 13.532 90.1682 13.7093 89.8322 14.064C89.4962 14.4093 89.3282 14.8947 89.3282 15.52V20H87.9842V15.436C87.9842 14.8293 87.8349 14.3627 87.5362 14.036C87.2376 13.7 86.8222 13.532 86.2902 13.532C85.7396 13.532 85.2962 13.7093 84.9602 14.064C84.6242 14.4093 84.4562 14.8947 84.4562 15.52V20H83.1122ZM101.183 20V17.76H100.959V15.17C100.959 14.6567 100.824 14.2693 100.553 14.008C100.292 13.7467 99.9044 13.616 99.391 13.616C99.1017 13.616 98.803 13.6207 98.495 13.63C98.187 13.6393 97.893 13.6487 97.613 13.658C97.333 13.6673 97.0904 13.6813 96.885 13.7V12.524C97.0904 12.5053 97.305 12.4913 97.529 12.482C97.7624 12.4633 98.0004 12.454 98.243 12.454C98.4857 12.4447 98.719 12.44 98.943 12.44C99.7084 12.44 100.334 12.5333 100.819 12.72C101.304 12.8973 101.664 13.1913 101.897 13.602C102.13 14.0127 102.247 14.568 102.247 15.268V20H101.183ZM98.733 20.196C98.173 20.196 97.6877 20.1027 97.277 19.916C96.8757 19.72 96.563 19.44 96.339 19.076C96.1244 18.712 96.017 18.2733 96.017 17.76C96.017 17.228 96.1337 16.7847 96.367 16.43C96.6097 16.0753 96.9597 15.8093 97.417 15.632C97.8744 15.4453 98.425 15.352 99.069 15.352H101.099V16.36H99.013C98.4717 16.36 98.0564 16.4907 97.767 16.752C97.4777 17.0133 97.333 17.3493 97.333 17.76C97.333 18.1707 97.4777 18.502 97.767 18.754C98.0564 19.006 98.4717 19.132 99.013 19.132C99.3304 19.132 99.6337 19.076 99.923 18.964C100.212 18.8427 100.45 18.6467 100.637 18.376C100.833 18.096 100.94 17.7133 100.959 17.228L101.323 17.76C101.276 18.292 101.146 18.74 100.931 19.104C100.726 19.4587 100.436 19.7293 100.063 19.916C99.699 20.1027 99.2557 20.196 98.733 20.196ZM105.078 20V12.524H106.422V20H105.078ZM103.93 13.588V12.524H106.422V13.588H103.93ZM105.456 11.32C105.157 11.32 104.933 11.2407 104.784 11.082C104.644 10.9233 104.574 10.7227 104.574 10.48C104.574 10.2373 104.644 10.0367 104.784 9.878C104.933 9.71933 105.157 9.64 105.456 9.64C105.754 9.64 105.974 9.71933 106.114 9.878C106.263 10.0367 106.338 10.2373 106.338 10.48C106.338 10.7227 106.263 10.9233 106.114 11.082C105.974 11.2407 105.754 11.32 105.456 11.32ZM111.47 20.224C110.49 20.224 109.73 20.014 109.188 19.594C108.656 19.174 108.381 18.6 108.362 17.872H109.622C109.641 18.1613 109.786 18.4367 110.056 18.698C110.336 18.95 110.808 19.076 111.47 19.076C112.068 19.076 112.525 18.9593 112.842 18.726C113.16 18.4833 113.318 18.1893 113.318 17.844C113.318 17.536 113.202 17.298 112.968 17.13C112.735 16.9527 112.357 16.836 111.834 16.78L111.022 16.696C110.313 16.6213 109.734 16.4113 109.286 16.066C108.838 15.7113 108.614 15.2167 108.614 14.582C108.614 14.106 108.736 13.7 108.978 13.364C109.221 13.0187 109.557 12.7573 109.986 12.58C110.416 12.3933 110.91 12.3 111.47 12.3C112.31 12.3 112.992 12.4867 113.514 12.86C114.037 13.2333 114.308 13.7887 114.326 14.526H113.066C113.057 14.2273 112.917 13.9753 112.646 13.77C112.385 13.5553 111.993 13.448 111.47 13.448C110.948 13.448 110.551 13.5553 110.28 13.77C110.01 13.9847 109.874 14.2553 109.874 14.582C109.874 14.862 109.968 15.086 110.154 15.254C110.35 15.422 110.668 15.5293 111.106 15.576L111.918 15.66C112.721 15.744 113.365 15.968 113.85 16.332C114.336 16.6867 114.578 17.1907 114.578 17.844C114.578 18.3107 114.443 18.726 114.172 19.09C113.911 19.4447 113.547 19.7247 113.08 19.93C112.614 20.126 112.077 20.224 111.47 20.224ZM122.918 20.252C122.274 20.252 121.714 20.14 121.238 19.916C120.771 19.692 120.384 19.3933 120.076 19.02C119.768 18.6373 119.534 18.2173 119.376 17.76C119.226 17.3027 119.152 16.8453 119.152 16.388V16.136C119.152 15.66 119.226 15.1933 119.376 14.736C119.534 14.2787 119.768 13.868 120.076 13.504C120.393 13.1307 120.785 12.832 121.252 12.608C121.718 12.384 122.264 12.272 122.89 12.272C123.515 12.272 124.075 12.3887 124.57 12.622C125.074 12.8553 125.475 13.1867 125.774 13.616C126.082 14.036 126.254 14.5353 126.292 15.114H125.004C124.938 14.6473 124.724 14.26 124.36 13.952C123.996 13.6347 123.506 13.476 122.89 13.476C122.358 13.476 121.914 13.5973 121.56 13.84C121.205 14.0827 120.939 14.414 120.762 14.834C120.584 15.254 120.496 15.73 120.496 16.262C120.496 16.7753 120.584 17.2467 120.762 17.676C120.939 18.096 121.205 18.432 121.56 18.684C121.924 18.9267 122.376 19.048 122.918 19.048C123.338 19.048 123.702 18.9733 124.01 18.824C124.318 18.6747 124.565 18.474 124.752 18.222C124.938 17.97 125.05 17.6853 125.088 17.368H126.376C126.348 17.956 126.175 18.4647 125.858 18.894C125.55 19.3233 125.139 19.6593 124.626 19.902C124.122 20.1353 123.552 20.252 122.918 20.252ZM128.286 20V9.78H129.63V20H128.286ZM127.25 10.844V9.78H129.63V10.844H127.25ZM132.572 20V12.524H133.916V20H132.572ZM131.424 13.588V12.524H133.916V13.588H131.424ZM132.95 11.32C132.651 11.32 132.427 11.2407 132.278 11.082C132.138 10.9233 132.068 10.7227 132.068 10.48C132.068 10.2373 132.138 10.0367 132.278 9.878C132.427 9.71933 132.651 9.64 132.95 9.64C133.249 9.64 133.468 9.71933 133.608 9.878C133.757 10.0367 133.832 10.2373 133.832 10.48C133.832 10.7227 133.757 10.9233 133.608 11.082C133.468 11.2407 133.249 11.32 132.95 11.32ZM139.693 20.252C139.039 20.252 138.475 20.14 137.999 19.916C137.523 19.692 137.135 19.398 136.837 19.034C136.538 18.6607 136.314 18.2453 136.165 17.788C136.025 17.3307 135.955 16.864 135.955 16.388V16.136C135.955 15.6507 136.025 15.1793 136.165 14.722C136.314 14.2647 136.538 13.854 136.837 13.49C137.135 13.1167 137.513 12.8227 137.971 12.608C138.437 12.384 138.983 12.272 139.609 12.272C140.421 12.272 141.088 12.4493 141.611 12.804C142.143 13.1493 142.535 13.5973 142.787 14.148C143.048 14.6987 143.179 15.2867 143.179 15.912V16.514H136.543V15.506H142.199L141.891 16.052C141.891 15.52 141.807 15.0627 141.639 14.68C141.471 14.288 141.219 13.9847 140.883 13.77C140.547 13.5553 140.122 13.448 139.609 13.448C139.077 13.448 138.633 13.5693 138.279 13.812C137.933 14.0547 137.672 14.386 137.495 14.806C137.327 15.226 137.243 15.7113 137.243 16.262C137.243 16.794 137.327 17.2747 137.495 17.704C137.672 18.124 137.943 18.46 138.307 18.712C138.671 18.9547 139.133 19.076 139.693 19.076C140.281 19.076 140.757 18.9453 141.121 18.684C141.494 18.4227 141.718 18.1193 141.793 17.774H143.053C142.95 18.2873 142.745 18.7307 142.437 19.104C142.129 19.4773 141.741 19.762 141.275 19.958C140.808 20.154 140.281 20.252 139.693 20.252ZM145.087 20V12.524H146.151V15.73H145.983C145.983 14.9927 146.081 14.372 146.277 13.868C146.482 13.3547 146.79 12.9673 147.201 12.706C147.611 12.4353 148.129 12.3 148.755 12.3H148.811C149.753 12.3 150.449 12.594 150.897 13.182C151.354 13.77 151.583 14.6193 151.583 15.73V20H150.239V15.45C150.239 14.8713 150.075 14.4093 149.749 14.064C149.422 13.7093 148.974 13.532 148.405 13.532C147.817 13.532 147.341 13.714 146.977 14.078C146.613 14.442 146.431 14.9273 146.431 15.534V20H145.087ZM156.954 20.084C156.394 20.084 155.909 20.0047 155.498 19.846C155.097 19.6873 154.784 19.4167 154.56 19.034C154.345 18.642 154.238 18.1147 154.238 17.452V10.256H155.526V17.62C155.526 18.0213 155.633 18.334 155.848 18.558C156.072 18.7727 156.385 18.88 156.786 18.88H158.102V20.084H156.954ZM152.95 13.532V12.524H158.102V13.532H152.95ZM163.126 20.252C162.473 20.252 161.908 20.14 161.432 19.916C160.956 19.692 160.569 19.398 160.27 19.034C159.971 18.6607 159.747 18.2453 159.598 17.788C159.458 17.3307 159.388 16.864 159.388 16.388V16.136C159.388 15.6507 159.458 15.1793 159.598 14.722C159.747 14.2647 159.971 13.854 160.27 13.49C160.569 13.1167 160.947 12.8227 161.404 12.608C161.871 12.384 162.417 12.272 163.042 12.272C163.854 12.272 164.521 12.4493 165.044 12.804C165.576 13.1493 165.968 13.5973 166.22 14.148C166.481 14.6987 166.612 15.2867 166.612 15.912V16.514H159.976V15.506H165.632L165.324 16.052C165.324 15.52 165.24 15.0627 165.072 14.68C164.904 14.288 164.652 13.9847 164.316 13.77C163.98 13.5553 163.555 13.448 163.042 13.448C162.51 13.448 162.067 13.5693 161.712 13.812C161.367 14.0547 161.105 14.386 160.928 14.806C160.76 15.226 160.676 15.7113 160.676 16.262C160.676 16.794 160.76 17.2747 160.928 17.704C161.105 18.124 161.376 18.46 161.74 18.712C162.104 18.9547 162.566 19.076 163.126 19.076C163.714 19.076 164.19 18.9453 164.554 18.684C164.927 18.4227 165.151 18.1193 165.226 17.774H166.486C166.383 18.2873 166.178 18.7307 165.87 19.104C165.562 19.4773 165.175 19.762 164.708 19.958C164.241 20.154 163.714 20.252 163.126 20.252ZM170.97 20.224C169.99 20.224 169.23 20.014 168.688 19.594C168.156 19.174 167.881 18.6 167.862 17.872H169.122C169.141 18.1613 169.286 18.4367 169.556 18.698C169.836 18.95 170.308 19.076 170.97 19.076C171.568 19.076 172.025 18.9593 172.342 18.726C172.66 18.4833 172.818 18.1893 172.818 17.844C172.818 17.536 172.702 17.298 172.468 17.13C172.235 16.9527 171.857 16.836 171.334 16.78L170.522 16.696C169.813 16.6213 169.234 16.4113 168.786 16.066C168.338 15.7113 168.114 15.2167 168.114 14.582C168.114 14.106 168.236 13.7 168.478 13.364C168.721 13.0187 169.057 12.7573 169.486 12.58C169.916 12.3933 170.41 12.3 170.97 12.3C171.81 12.3 172.492 12.4867 173.014 12.86C173.537 13.2333 173.808 13.7887 173.826 14.526H172.566C172.557 14.2273 172.417 13.9753 172.146 13.77C171.885 13.5553 171.493 13.448 170.97 13.448C170.448 13.448 170.051 13.5553 169.78 13.77C169.51 13.9847 169.374 14.2553 169.374 14.582C169.374 14.862 169.468 15.086 169.654 15.254C169.85 15.422 170.168 15.5293 170.606 15.576L171.418 15.66C172.221 15.744 172.865 15.968 173.35 16.332C173.836 16.6867 174.078 17.1907 174.078 17.844C174.078 18.3107 173.943 18.726 173.672 19.09C173.411 19.4447 173.047 19.7247 172.58 19.93C172.114 20.126 171.577 20.224 170.97 20.224Z" fill="white"></path>
  <path d="M3.57399 43.8846C2.65089 43.3978 2.99685 42 4.04041 42H189C190.657 42 192 43.3431 192 45V71C192 72.6569 190.657 74 189 74H18.1717C16.5148 74 15.1717 72.6569 15.1717 71V54.2225C15.1717 51.6254 13.7339 49.2419 11.4367 48.0305L3.57399 43.8846Z" fill="#054640"></path>
  <path d="M30.85 63L27.308 52.78H28.722L31.9 62.104L31.228 61.768H32.908L32.194 62.104L35.12 52.78H36.492L33.202 63H30.85ZM40.8176 63.252C40.1642 63.252 39.5996 63.14 39.1236 62.916C38.6476 62.692 38.2602 62.398 37.9616 62.034C37.6629 61.6607 37.4389 61.2453 37.2896 60.788C37.1496 60.3307 37.0796 59.864 37.0796 59.388V59.136C37.0796 58.6507 37.1496 58.1793 37.2896 57.722C37.4389 57.2647 37.6629 56.854 37.9616 56.49C38.2602 56.1167 38.6382 55.8227 39.0956 55.608C39.5622 55.384 40.1082 55.272 40.7336 55.272C41.5456 55.272 42.2129 55.4493 42.7356 55.804C43.2676 56.1493 43.6596 56.5973 43.9116 57.148C44.1729 57.6987 44.3036 58.2867 44.3036 58.912V59.514H37.6676V58.506H43.3236L43.0156 59.052C43.0156 58.52 42.9316 58.0627 42.7636 57.68C42.5956 57.288 42.3436 56.9847 42.0076 56.77C41.6716 56.5553 41.2469 56.448 40.7336 56.448C40.2016 56.448 39.7582 56.5693 39.4036 56.812C39.0582 57.0547 38.7969 57.386 38.6196 57.806C38.4516 58.226 38.3676 58.7113 38.3676 59.262C38.3676 59.794 38.4516 60.2747 38.6196 60.704C38.7969 61.124 39.0676 61.46 39.4316 61.712C39.7956 61.9547 40.2576 62.076 40.8176 62.076C41.4056 62.076 41.8816 61.9453 42.2456 61.684C42.6189 61.4227 42.8429 61.1193 42.9176 60.774H44.1776C44.0749 61.2873 43.8696 61.7307 43.5616 62.104C43.2536 62.4773 42.8662 62.762 42.3996 62.958C41.9329 63.154 41.4056 63.252 40.8176 63.252ZM46.2118 63V55.524H47.2758V58.73H47.1078C47.1078 57.9927 47.2058 57.372 47.4018 56.868C47.6072 56.3547 47.9152 55.9673 48.3258 55.706C48.7365 55.4353 49.2545 55.3 49.8798 55.3H49.9358C50.8785 55.3 51.5738 55.594 52.0218 56.182C52.4792 56.77 52.7078 57.6193 52.7078 58.73V63H51.3638V58.45C51.3638 57.8713 51.2005 57.4093 50.8738 57.064C50.5472 56.7093 50.0992 56.532 49.5298 56.532C48.9418 56.532 48.4658 56.714 48.1018 57.078C47.7378 57.442 47.5558 57.9273 47.5558 58.534V63H46.2118ZM58.2889 63.252C57.7569 63.252 57.2669 63.154 56.8189 62.958C56.3709 62.762 55.9789 62.4867 55.6429 62.132C55.3162 61.7773 55.0596 61.3667 54.8729 60.9C54.6956 60.4333 54.6069 59.9293 54.6069 59.388V59.136C54.6069 58.604 54.6956 58.1047 54.8729 57.638C55.0502 57.1713 55.2976 56.7607 55.6149 56.406C55.9416 56.0513 56.3242 55.776 56.7629 55.58C57.2109 55.3747 57.7056 55.272 58.2469 55.272C58.8162 55.272 59.3342 55.3933 59.8009 55.636C60.2676 55.8693 60.6502 56.238 60.9489 56.742C61.2476 57.246 61.4156 57.8993 61.4529 58.702L60.8929 57.806V52.78H62.2369V63H61.1729V59.682H61.5649C61.5276 60.5313 61.3502 61.222 61.0329 61.754C60.7156 62.2767 60.3142 62.6593 59.8289 62.902C59.3529 63.1353 58.8396 63.252 58.2889 63.252ZM58.4709 62.076C58.9282 62.076 59.3436 61.9733 59.7169 61.768C60.0902 61.5627 60.3889 61.2687 60.6129 60.886C60.8369 60.494 60.9489 60.0367 60.9489 59.514V58.87C60.9489 58.3567 60.8322 57.9227 60.5989 57.568C60.3749 57.204 60.0716 56.9287 59.6889 56.742C59.3156 56.546 58.9049 56.448 58.4569 56.448C57.9622 56.448 57.5236 56.5647 57.1409 56.798C56.7676 57.0313 56.4736 57.358 56.2589 57.778C56.0536 58.198 55.9509 58.6927 55.9509 59.262C55.9509 59.8313 56.0582 60.3307 56.2729 60.76C56.4876 61.18 56.7862 61.5067 57.1689 61.74C57.5516 61.964 57.9856 62.076 58.4709 62.076ZM69.3413 63V60.76H69.1173V58.17C69.1173 57.6567 68.9819 57.2693 68.7113 57.008C68.4499 56.7467 68.0626 56.616 67.5493 56.616C67.2599 56.616 66.9613 56.6207 66.6533 56.63C66.3453 56.6393 66.0513 56.6487 65.7713 56.658C65.4913 56.6673 65.2486 56.6813 65.0433 56.7V55.524C65.2486 55.5053 65.4633 55.4913 65.6873 55.482C65.9206 55.4633 66.1586 55.454 66.4013 55.454C66.6439 55.4447 66.8773 55.44 67.1013 55.44C67.8666 55.44 68.4919 55.5333 68.9773 55.72C69.4626 55.8973 69.8219 56.1913 70.0553 56.602C70.2886 57.0127 70.4053 57.568 70.4053 58.268V63H69.3413ZM66.8913 63.196C66.3313 63.196 65.8459 63.1027 65.4353 62.916C65.0339 62.72 64.7213 62.44 64.4973 62.076C64.2826 61.712 64.1753 61.2733 64.1753 60.76C64.1753 60.228 64.2919 59.7847 64.5253 59.43C64.7679 59.0753 65.1179 58.8093 65.5753 58.632C66.0326 58.4453 66.5833 58.352 67.2272 58.352H69.2573V59.36H67.1713C66.6299 59.36 66.2146 59.4907 65.9253 59.752C65.6359 60.0133 65.4913 60.3493 65.4913 60.76C65.4913 61.1707 65.6359 61.502 65.9253 61.754C66.2146 62.006 66.6299 62.132 67.1713 62.132C67.4886 62.132 67.7919 62.076 68.0813 61.964C68.3706 61.8427 68.6086 61.6467 68.7953 61.376C68.9913 61.096 69.0986 60.7133 69.1173 60.228L69.4813 60.76C69.4346 61.292 69.3039 61.74 69.0893 62.104C68.8839 62.4587 68.5946 62.7293 68.2213 62.916C67.8573 63.1027 67.4139 63.196 66.8913 63.196ZM76.0575 63V55.524H77.1215V58.73H76.9535C76.9535 58.002 77.0469 57.386 77.2335 56.882C77.4295 56.3687 77.7189 55.9767 78.1015 55.706C78.4842 55.4353 78.9695 55.3 79.5575 55.3H79.6135C80.2015 55.3 80.6869 55.4353 81.0695 55.706C81.4615 55.9767 81.7509 56.3687 81.9375 56.882C82.1242 57.386 82.2175 58.002 82.2175 58.73H81.8255C81.8255 58.002 81.9235 57.386 82.1195 56.882C82.3155 56.3687 82.6049 55.9767 82.9875 55.706C83.3795 55.4353 83.8695 55.3 84.4575 55.3H84.5135C85.1015 55.3 85.5915 55.4353 85.9835 55.706C86.3755 55.9767 86.6649 56.3687 86.8515 56.882C87.0475 57.386 87.1455 58.002 87.1455 58.73V63H85.8015V58.436C85.8015 57.8293 85.6522 57.3627 85.3535 57.036C85.0549 56.7 84.6395 56.532 84.1075 56.532C83.5569 56.532 83.1135 56.7093 82.7775 57.064C82.4415 57.4093 82.2735 57.8947 82.2735 58.52V63H80.9295V58.436C80.9295 57.8293 80.7802 57.3627 80.4815 57.036C80.1829 56.7 79.7675 56.532 79.2355 56.532C78.6849 56.532 78.2415 56.7093 77.9055 57.064C77.5695 57.4093 77.4015 57.8947 77.4015 58.52V63H76.0575ZM92.1964 63.224C91.3097 63.224 90.6284 62.9347 90.1524 62.356C89.6764 61.7773 89.4384 60.942 89.4384 59.85V55.51H90.7824V60.116C90.7824 60.704 90.941 61.166 91.2584 61.502C91.5757 61.8287 92.005 61.992 92.5464 61.992C93.1064 61.992 93.5637 61.8147 93.9184 61.46C94.273 61.096 94.4504 60.6013 94.4504 59.976V55.51H95.7944V63H94.7304V59.794H94.8984C94.8984 60.5313 94.8004 61.1567 94.6044 61.67C94.4084 62.174 94.1144 62.5613 93.7224 62.832C93.3397 63.0933 92.8497 63.224 92.2524 63.224H92.1964ZM98.7614 63V55.524H100.105V63H98.7614ZM97.6134 56.588V55.524H100.105V56.588H97.6134ZM99.1394 54.32C98.8407 54.32 98.6167 54.2407 98.4674 54.082C98.3274 53.9233 98.2574 53.7227 98.2574 53.48C98.2574 53.2373 98.3274 53.0367 98.4674 52.878C98.6167 52.7193 98.8407 52.64 99.1394 52.64C99.438 52.64 99.6574 52.7193 99.7974 52.878C99.9467 53.0367 100.021 53.2373 100.021 53.48C100.021 53.7227 99.9467 53.9233 99.7974 54.082C99.6574 54.2407 99.438 54.32 99.1394 54.32ZM105.616 63.084C105.056 63.084 104.571 63.0047 104.16 62.846C103.759 62.6873 103.446 62.4167 103.222 62.034C103.007 61.642 102.9 61.1147 102.9 60.452V53.256H104.188V60.62C104.188 61.0213 104.295 61.334 104.51 61.558C104.734 61.7727 105.047 61.88 105.448 61.88H106.764V63.084H105.616ZM101.612 56.532V55.524H106.764V56.532H101.612ZM112.054 63.252C111.401 63.252 110.827 63.14 110.332 62.916C109.838 62.692 109.418 62.398 109.072 62.034C108.736 61.6607 108.48 61.2453 108.302 60.788C108.134 60.3307 108.05 59.864 108.05 59.388V59.136C108.05 58.66 108.139 58.1933 108.316 57.736C108.494 57.2693 108.755 56.854 109.1 56.49C109.446 56.1167 109.866 55.8227 110.36 55.608C110.855 55.384 111.42 55.272 112.054 55.272C112.689 55.272 113.254 55.384 113.748 55.608C114.243 55.8227 114.663 56.1167 115.008 56.49C115.354 56.854 115.615 57.2693 115.792 57.736C115.97 58.1933 116.058 58.66 116.058 59.136V59.388C116.058 59.864 115.97 60.3307 115.792 60.788C115.624 61.2453 115.368 61.6607 115.022 62.034C114.686 62.398 114.271 62.692 113.776 62.916C113.282 63.14 112.708 63.252 112.054 63.252ZM112.054 62.048C112.614 62.048 113.09 61.9267 113.482 61.684C113.884 61.432 114.187 61.096 114.392 60.676C114.607 60.256 114.714 59.7847 114.714 59.262C114.714 58.73 114.607 58.254 114.392 57.834C114.178 57.414 113.87 57.0827 113.468 56.84C113.076 56.5973 112.605 56.476 112.054 56.476C111.513 56.476 111.042 56.5973 110.64 56.84C110.239 57.0827 109.931 57.414 109.716 57.834C109.502 58.254 109.394 58.73 109.394 59.262C109.394 59.7847 109.497 60.256 109.702 60.676C109.917 61.096 110.22 61.432 110.612 61.684C111.014 61.9267 111.494 62.048 112.054 62.048ZM121.257 63V55.524H122.321V58.73H122.153C122.153 58.002 122.246 57.386 122.433 56.882C122.629 56.3687 122.918 55.9767 123.301 55.706C123.683 55.4353 124.169 55.3 124.757 55.3H124.813C125.401 55.3 125.886 55.4353 126.269 55.706C126.661 55.9767 126.95 56.3687 127.137 56.882C127.323 57.386 127.417 58.002 127.417 58.73H127.025C127.025 58.002 127.123 57.386 127.319 56.882C127.515 56.3687 127.804 55.9767 128.187 55.706C128.579 55.4353 129.069 55.3 129.657 55.3H129.713C130.301 55.3 130.791 55.4353 131.183 55.706C131.575 55.9767 131.864 56.3687 132.051 56.882C132.247 57.386 132.345 58.002 132.345 58.73V63H131.001V58.436C131.001 57.8293 130.851 57.3627 130.553 57.036C130.254 56.7 129.839 56.532 129.307 56.532C128.756 56.532 128.313 56.7093 127.977 57.064C127.641 57.4093 127.473 57.8947 127.473 58.52V63H126.129V58.436C126.129 57.8293 125.979 57.3627 125.681 57.036C125.382 56.7 124.967 56.532 124.435 56.532C123.884 56.532 123.441 56.7093 123.105 57.064C122.769 57.4093 122.601 57.8947 122.601 58.52V63H121.257ZM139.328 63V60.76H139.104V58.17C139.104 57.6567 138.968 57.2693 138.698 57.008C138.436 56.7467 138.049 56.616 137.536 56.616C137.246 56.616 136.948 56.6207 136.64 56.63C136.332 56.6393 136.038 56.6487 135.758 56.658C135.478 56.6673 135.235 56.6813 135.03 56.7V55.524C135.235 55.5053 135.45 55.4913 135.674 55.482C135.907 55.4633 136.145 55.454 136.388 55.454C136.63 55.4447 136.864 55.44 137.088 55.44C137.853 55.44 138.478 55.5333 138.964 55.72C139.449 55.8973 139.808 56.1913 140.042 56.602C140.275 57.0127 140.392 57.568 140.392 58.268V63H139.328ZM136.878 63.196C136.318 63.196 135.832 63.1027 135.422 62.916C135.02 62.72 134.708 62.44 134.484 62.076C134.269 61.712 134.162 61.2733 134.162 60.76C134.162 60.228 134.278 59.7847 134.512 59.43C134.754 59.0753 135.104 58.8093 135.562 58.632C136.019 58.4453 136.57 58.352 137.214 58.352H139.244V59.36H137.158C136.616 59.36 136.201 59.4907 135.912 59.752C135.622 60.0133 135.478 60.3493 135.478 60.76C135.478 61.1707 135.622 61.502 135.912 61.754C136.201 62.006 136.616 62.132 137.158 62.132C137.475 62.132 137.778 62.076 138.068 61.964C138.357 61.8427 138.595 61.6467 138.782 61.376C138.978 61.096 139.085 60.7133 139.104 60.228L139.468 60.76C139.421 61.292 139.29 61.74 139.076 62.104C138.87 62.4587 138.581 62.7293 138.208 62.916C137.844 63.1027 137.4 63.196 136.878 63.196ZM143.222 63V55.524H144.566V63H143.222ZM142.074 56.588V55.524H144.566V56.588H142.074ZM143.6 54.32C143.302 54.32 143.078 54.2407 142.928 54.082C142.788 53.9233 142.718 53.7227 142.718 53.48C142.718 53.2373 142.788 53.0367 142.928 52.878C143.078 52.7193 143.302 52.64 143.6 52.64C143.899 52.64 144.118 52.7193 144.258 52.878C144.408 53.0367 144.482 53.2373 144.482 53.48C144.482 53.7227 144.408 53.9233 144.258 54.082C144.118 54.2407 143.899 54.32 143.6 54.32ZM149.615 63.224C148.635 63.224 147.874 63.014 147.333 62.594C146.801 62.174 146.526 61.6 146.507 60.872H147.767C147.786 61.1613 147.93 61.4367 148.201 61.698C148.481 61.95 148.952 62.076 149.615 62.076C150.212 62.076 150.67 61.9593 150.987 61.726C151.304 61.4833 151.463 61.1893 151.463 60.844C151.463 60.536 151.346 60.298 151.113 60.13C150.88 59.9527 150.502 59.836 149.979 59.78L149.167 59.696C148.458 59.6213 147.879 59.4113 147.431 59.066C146.983 58.7113 146.759 58.2167 146.759 57.582C146.759 57.106 146.88 56.7 147.123 56.364C147.366 56.0187 147.702 55.7573 148.131 55.58C148.56 55.3933 149.055 55.3 149.615 55.3C150.455 55.3 151.136 55.4867 151.659 55.86C152.182 56.2333 152.452 56.7887 152.471 57.526H151.211C151.202 57.2273 151.062 56.9753 150.791 56.77C150.53 56.5553 150.138 56.448 149.615 56.448C149.092 56.448 148.696 56.5553 148.425 56.77C148.154 56.9847 148.019 57.2553 148.019 57.582C148.019 57.862 148.112 58.086 148.299 58.254C148.495 58.422 148.812 58.5293 149.251 58.576L150.063 58.66C150.866 58.744 151.51 58.968 151.995 59.332C152.48 59.6867 152.723 60.1907 152.723 60.844C152.723 61.3107 152.588 61.726 152.317 62.09C152.056 62.4447 151.692 62.7247 151.225 62.93C150.758 63.126 150.222 63.224 149.615 63.224Z" fill="white"></path>
  <path d="M3.57399 85.8846C2.65089 85.3978 2.99685 84 4.04041 84H189C190.657 84 192 85.3431 192 87V113C192 114.657 190.657 116 189 116H18.1717C16.5148 116 15.1717 114.657 15.1717 113V96.2225C15.1717 93.6254 13.7339 91.2419 11.4367 90.0305L3.57399 85.8846Z" fill="#054640"></path>
  <path d="M33.048 105.252C32.2547 105.252 31.536 105.121 30.892 104.86C30.248 104.599 29.6927 104.23 29.226 103.754C28.7687 103.278 28.414 102.718 28.162 102.074C27.91 101.421 27.784 100.711 27.784 99.946V99.638C27.784 98.9847 27.896 98.3547 28.12 97.748C28.3533 97.132 28.6847 96.5813 29.114 96.096C29.5527 95.6013 30.0847 95.214 30.71 94.934C31.3353 94.6447 32.04 94.5 32.824 94.5C33.6733 94.5 34.4293 94.6633 35.092 94.99C35.7547 95.3073 36.2867 95.7553 36.688 96.334C37.0893 96.9033 37.3227 97.566 37.388 98.322H35.988C35.9227 97.7527 35.736 97.2813 35.428 96.908C35.12 96.5253 34.7373 96.2407 34.28 96.054C33.832 95.858 33.3467 95.76 32.824 95.76C32.292 95.76 31.802 95.858 31.354 96.054C30.906 96.2407 30.5187 96.5113 30.192 96.866C29.8747 97.2207 29.6273 97.6453 29.45 98.14C29.2727 98.6347 29.184 99.19 29.184 99.806C29.184 100.506 29.2773 101.122 29.464 101.654C29.66 102.177 29.9307 102.615 30.276 102.97C30.6213 103.315 31.0273 103.577 31.494 103.754C31.97 103.931 32.488 104.02 33.048 104.02C33.8413 104.02 34.5367 103.861 35.134 103.544C35.7407 103.217 36.198 102.797 36.506 102.284L36.002 103.95V100.912H37.29V103.348C36.8327 103.945 36.2447 104.412 35.526 104.748C34.8073 105.084 33.9813 105.252 33.048 105.252ZM32.684 101.192V100.044H38.158V101.192H32.684ZM44.4448 105V102.76H44.2208V100.17C44.2208 99.6567 44.0854 99.2693 43.8148 99.008C43.5534 98.7467 43.1661 98.616 42.6528 98.616C42.3634 98.616 42.0648 98.6207 41.7568 98.63C41.4488 98.6393 41.1548 98.6487 40.8748 98.658C40.5948 98.6673 40.3521 98.6813 40.1468 98.7V97.524C40.3521 97.5053 40.5668 97.4913 40.7908 97.482C41.0241 97.4633 41.2621 97.454 41.5048 97.454C41.7474 97.4447 41.9808 97.44 42.2048 97.44C42.9701 97.44 43.5954 97.5333 44.0808 97.72C44.5661 97.8973 44.9254 98.1913 45.1588 98.602C45.3921 99.0127 45.5088 99.568 45.5088 100.268V105H44.4448ZM41.9948 105.196C41.4348 105.196 40.9494 105.103 40.5388 104.916C40.1374 104.72 39.8248 104.44 39.6008 104.076C39.3861 103.712 39.2788 103.273 39.2788 102.76C39.2788 102.228 39.3954 101.785 39.6288 101.43C39.8714 101.075 40.2214 100.809 40.6788 100.632C41.1361 100.445 41.6868 100.352 42.3308 100.352H44.3608V101.36H42.2748C41.7334 101.36 41.3181 101.491 41.0288 101.752C40.7394 102.013 40.5948 102.349 40.5948 102.76C40.5948 103.171 40.7394 103.502 41.0288 103.754C41.3181 104.006 41.7334 104.132 42.2748 104.132C42.5921 104.132 42.8954 104.076 43.1848 103.964C43.4741 103.843 43.7121 103.647 43.8988 103.376C44.0948 103.096 44.2021 102.713 44.2208 102.228L44.5848 102.76C44.5381 103.292 44.4074 103.74 44.1928 104.104C43.9874 104.459 43.6981 104.729 43.3248 104.916C42.9608 105.103 42.5174 105.196 41.9948 105.196ZM50.4255 105.224C49.4455 105.224 48.6848 105.014 48.1435 104.594C47.6115 104.174 47.3362 103.6 47.3175 102.872H48.5775C48.5962 103.161 48.7408 103.437 49.0115 103.698C49.2915 103.95 49.7628 104.076 50.4255 104.076C51.0228 104.076 51.4802 103.959 51.7975 103.726C52.1148 103.483 52.2735 103.189 52.2735 102.844C52.2735 102.536 52.1568 102.298 51.9235 102.13C51.6902 101.953 51.3122 101.836 50.7895 101.78L49.9775 101.696C49.2682 101.621 48.6895 101.411 48.2415 101.066C47.7935 100.711 47.5695 100.217 47.5695 99.582C47.5695 99.106 47.6908 98.7 47.9335 98.364C48.1762 98.0187 48.5122 97.7573 48.9415 97.58C49.3708 97.3933 49.8655 97.3 50.4255 97.3C51.2655 97.3 51.9468 97.4867 52.4695 97.86C52.9922 98.2333 53.2628 98.7887 53.2815 99.526H52.0215C52.0122 99.2273 51.8722 98.9753 51.6015 98.77C51.3402 98.5553 50.9482 98.448 50.4255 98.448C49.9028 98.448 49.5062 98.5553 49.2355 98.77C48.9648 98.9847 48.8295 99.2553 48.8295 99.582C48.8295 99.862 48.9228 100.086 49.1095 100.254C49.3055 100.422 49.6228 100.529 50.0615 100.576L50.8735 100.66C51.6762 100.744 52.3202 100.968 52.8055 101.332C53.2908 101.687 53.5335 102.191 53.5335 102.844C53.5335 103.311 53.3982 103.726 53.1275 104.09C52.8662 104.445 52.5022 104.725 52.0355 104.93C51.5688 105.126 51.0322 105.224 50.4255 105.224ZM58.3934 105.084C57.8334 105.084 57.348 105.005 56.9374 104.846C56.536 104.687 56.2234 104.417 55.9994 104.034C55.7847 103.642 55.6774 103.115 55.6774 102.452V95.256H56.9654V102.62C56.9654 103.021 57.0727 103.334 57.2874 103.558C57.5114 103.773 57.824 103.88 58.2254 103.88H59.5414V105.084H58.3934ZM54.3894 98.532V97.524H59.5414V98.532H54.3894ZM64.5656 105.252C63.9123 105.252 63.3476 105.14 62.8716 104.916C62.3956 104.692 62.0083 104.398 61.7096 104.034C61.4109 103.661 61.1869 103.245 61.0376 102.788C60.8976 102.331 60.8276 101.864 60.8276 101.388V101.136C60.8276 100.651 60.8976 100.179 61.0376 99.722C61.1869 99.2647 61.4109 98.854 61.7096 98.49C62.0083 98.1167 62.3863 97.8227 62.8436 97.608C63.3103 97.384 63.8563 97.272 64.4816 97.272C65.2936 97.272 65.9609 97.4493 66.4836 97.804C67.0156 98.1493 67.4076 98.5973 67.6596 99.148C67.9209 99.6987 68.0516 100.287 68.0516 100.912V101.514H61.4156V100.506H67.0716L66.7636 101.052C66.7636 100.52 66.6796 100.063 66.5116 99.68C66.3436 99.288 66.0916 98.9847 65.7556 98.77C65.4196 98.5553 64.9949 98.448 64.4816 98.448C63.9496 98.448 63.5063 98.5693 63.1516 98.812C62.8063 99.0547 62.5449 99.386 62.3676 99.806C62.1996 100.226 62.1156 100.711 62.1156 101.262C62.1156 101.794 62.1996 102.275 62.3676 102.704C62.5449 103.124 62.8156 103.46 63.1796 103.712C63.5436 103.955 64.0056 104.076 64.5656 104.076C65.1536 104.076 65.6296 103.945 65.9936 103.684C66.3669 103.423 66.5909 103.119 66.6656 102.774H67.9256C67.8229 103.287 67.6176 103.731 67.3096 104.104C67.0016 104.477 66.6143 104.762 66.1476 104.958C65.6809 105.154 65.1536 105.252 64.5656 105.252ZM73.1454 105V97.524H74.2094V100.73H74.0414C74.0414 100.002 74.1348 99.386 74.3214 98.882C74.5174 98.3687 74.8068 97.9767 75.1894 97.706C75.5721 97.4353 76.0574 97.3 76.6454 97.3H76.7014C77.2894 97.3 77.7748 97.4353 78.1574 97.706C78.5494 97.9767 78.8388 98.3687 79.0254 98.882C79.2121 99.386 79.3054 100.002 79.3054 100.73H78.9134C78.9134 100.002 79.0114 99.386 79.2074 98.882C79.4034 98.3687 79.6928 97.9767 80.0754 97.706C80.4674 97.4353 80.9574 97.3 81.5454 97.3H81.6014C82.1894 97.3 82.6794 97.4353 83.0714 97.706C83.4634 97.9767 83.7528 98.3687 83.9394 98.882C84.1354 99.386 84.2334 100.002 84.2334 100.73V105H82.8894V100.436C82.8894 99.8293 82.7401 99.3627 82.4414 99.036C82.1428 98.7 81.7274 98.532 81.1954 98.532C80.6448 98.532 80.2014 98.7093 79.8654 99.064C79.5294 99.4093 79.3614 99.8947 79.3614 100.52V105H78.0174V100.436C78.0174 99.8293 77.8681 99.3627 77.5694 99.036C77.2708 98.7 76.8554 98.532 76.3234 98.532C75.7728 98.532 75.3294 98.7093 74.9934 99.064C74.6574 99.4093 74.4894 99.8947 74.4894 100.52V105H73.1454ZM89.2843 105.224C88.3976 105.224 87.7163 104.935 87.2403 104.356C86.7643 103.777 86.5263 102.942 86.5263 101.85V97.51H87.8703V102.116C87.8703 102.704 88.0289 103.166 88.3463 103.502C88.6636 103.829 89.0929 103.992 89.6343 103.992C90.1943 103.992 90.6516 103.815 91.0063 103.46C91.3609 103.096 91.5383 102.601 91.5383 101.976V97.51H92.8823V105H91.8183V101.794H91.9863C91.9863 102.531 91.8883 103.157 91.6923 103.67C91.4963 104.174 91.2023 104.561 90.8103 104.832C90.4276 105.093 89.9376 105.224 89.3403 105.224H89.2843ZM95.8493 105V97.524H97.1933V105H95.8493ZM94.7013 98.588V97.524H97.1933V98.588H94.7013ZM96.2273 96.32C95.9286 96.32 95.7046 96.2407 95.5553 96.082C95.4153 95.9233 95.3453 95.7227 95.3453 95.48C95.3453 95.2373 95.4153 95.0367 95.5553 94.878C95.7046 94.7193 95.9286 94.64 96.2273 94.64C96.5259 94.64 96.7453 94.7193 96.8853 94.878C97.0346 95.0367 97.1093 95.2373 97.1093 95.48C97.1093 95.7227 97.0346 95.9233 96.8853 96.082C96.7453 96.2407 96.5259 96.32 96.2273 96.32ZM102.704 105.084C102.144 105.084 101.659 105.005 101.248 104.846C100.847 104.687 100.534 104.417 100.31 104.034C100.095 103.642 99.9879 103.115 99.9879 102.452V95.256H101.276V102.62C101.276 103.021 101.383 103.334 101.598 103.558C101.822 103.773 102.135 103.88 102.536 103.88H103.852V105.084H102.704ZM98.6999 98.532V97.524H103.852V98.532H98.6999ZM109.142 105.252C108.489 105.252 107.915 105.14 107.42 104.916C106.925 104.692 106.505 104.398 106.16 104.034C105.824 103.661 105.567 103.245 105.39 102.788C105.222 102.331 105.138 101.864 105.138 101.388V101.136C105.138 100.66 105.227 100.193 105.404 99.736C105.581 99.2693 105.843 98.854 106.188 98.49C106.533 98.1167 106.953 97.8227 107.448 97.608C107.943 97.384 108.507 97.272 109.142 97.272C109.777 97.272 110.341 97.384 110.836 97.608C111.331 97.8227 111.751 98.1167 112.096 98.49C112.441 98.854 112.703 99.2693 112.88 99.736C113.057 100.193 113.146 100.66 113.146 101.136V101.388C113.146 101.864 113.057 102.331 112.88 102.788C112.712 103.245 112.455 103.661 112.11 104.034C111.774 104.398 111.359 104.692 110.864 104.916C110.369 105.14 109.795 105.252 109.142 105.252ZM109.142 104.048C109.702 104.048 110.178 103.927 110.57 103.684C110.971 103.432 111.275 103.096 111.48 102.676C111.695 102.256 111.802 101.785 111.802 101.262C111.802 100.73 111.695 100.254 111.48 99.834C111.265 99.414 110.957 99.0827 110.556 98.84C110.164 98.5973 109.693 98.476 109.142 98.476C108.601 98.476 108.129 98.5973 107.728 98.84C107.327 99.0827 107.019 99.414 106.804 99.834C106.589 100.254 106.482 100.73 106.482 101.262C106.482 101.785 106.585 102.256 106.79 102.676C107.005 103.096 107.308 103.432 107.7 103.684C108.101 103.927 108.582 104.048 109.142 104.048ZM118.345 105V97.524H119.409V100.73H119.241C119.241 100.002 119.334 99.386 119.521 98.882C119.717 98.3687 120.006 97.9767 120.389 97.706C120.771 97.4353 121.257 97.3 121.845 97.3H121.901C122.489 97.3 122.974 97.4353 123.357 97.706C123.749 97.9767 124.038 98.3687 124.225 98.882C124.411 99.386 124.505 100.002 124.505 100.73H124.113C124.113 100.002 124.211 99.386 124.407 98.882C124.603 98.3687 124.892 97.9767 125.275 97.706C125.667 97.4353 126.157 97.3 126.745 97.3H126.801C127.389 97.3 127.879 97.4353 128.271 97.706C128.663 97.9767 128.952 98.3687 129.139 98.882C129.335 99.386 129.433 100.002 129.433 100.73V105H128.089V100.436C128.089 99.8293 127.939 99.3627 127.641 99.036C127.342 98.7 126.927 98.532 126.395 98.532C125.844 98.532 125.401 98.7093 125.065 99.064C124.729 99.4093 124.561 99.8947 124.561 100.52V105H123.217V100.436C123.217 99.8293 123.067 99.3627 122.769 99.036C122.47 98.7 122.055 98.532 121.523 98.532C120.972 98.532 120.529 98.7093 120.193 99.064C119.857 99.4093 119.689 99.8947 119.689 100.52V105H118.345ZM135.071 105.252C134.418 105.252 133.853 105.14 133.377 104.916C132.901 104.692 132.514 104.398 132.215 104.034C131.917 103.661 131.693 103.245 131.543 102.788C131.403 102.331 131.333 101.864 131.333 101.388V101.136C131.333 100.651 131.403 100.179 131.543 99.722C131.693 99.2647 131.917 98.854 132.215 98.49C132.514 98.1167 132.892 97.8227 133.349 97.608C133.816 97.384 134.362 97.272 134.987 97.272C135.799 97.272 136.467 97.4493 136.989 97.804C137.521 98.1493 137.913 98.5973 138.165 99.148C138.427 99.6987 138.557 100.287 138.557 100.912V101.514H131.921V100.506H137.577L137.269 101.052C137.269 100.52 137.185 100.063 137.017 99.68C136.849 99.288 136.597 98.9847 136.261 98.77C135.925 98.5553 135.501 98.448 134.987 98.448C134.455 98.448 134.012 98.5693 133.657 98.812C133.312 99.0547 133.051 99.386 132.873 99.806C132.705 100.226 132.621 100.711 132.621 101.262C132.621 101.794 132.705 102.275 132.873 102.704C133.051 103.124 133.321 103.46 133.685 103.712C134.049 103.955 134.511 104.076 135.071 104.076C135.659 104.076 136.135 103.945 136.499 103.684C136.873 103.423 137.097 103.119 137.171 102.774H138.431C138.329 103.287 138.123 103.731 137.815 104.104C137.507 104.477 137.12 104.762 136.653 104.958C136.187 105.154 135.659 105.252 135.071 105.252ZM140.466 105V97.524H141.53V100.73H141.362C141.362 99.9927 141.46 99.372 141.656 98.868C141.861 98.3547 142.169 97.9673 142.58 97.706C142.99 97.4353 143.508 97.3 144.134 97.3H144.19C145.132 97.3 145.828 97.594 146.276 98.182C146.733 98.77 146.962 99.6193 146.962 100.73V105H145.618V100.45C145.618 99.8713 145.454 99.4093 145.128 99.064C144.801 98.7093 144.353 98.532 143.784 98.532C143.196 98.532 142.72 98.714 142.356 99.078C141.992 99.442 141.81 99.9273 141.81 100.534V105H140.466ZM152.865 105.252C152.211 105.252 151.637 105.14 151.143 104.916C150.648 104.692 150.228 104.398 149.883 104.034C149.547 103.661 149.29 103.245 149.113 102.788C148.945 102.331 148.861 101.864 148.861 101.388V101.136C148.861 100.66 148.949 100.193 149.127 99.736C149.304 99.2693 149.565 98.854 149.911 98.49C150.256 98.1167 150.676 97.8227 151.171 97.608C151.665 97.384 152.23 97.272 152.865 97.272C153.499 97.272 154.064 97.384 154.559 97.608C155.053 97.8227 155.473 98.1167 155.819 98.49C156.164 98.854 156.425 99.2693 156.603 99.736C156.78 100.193 156.869 100.66 156.869 101.136V101.388C156.869 101.864 156.78 102.331 156.603 102.788C156.435 103.245 156.178 103.661 155.833 104.034C155.497 104.398 155.081 104.692 154.587 104.916C154.092 105.14 153.518 105.252 152.865 105.252ZM152.865 104.048C153.425 104.048 153.901 103.927 154.293 103.684C154.694 103.432 154.997 103.096 155.203 102.676C155.417 102.256 155.525 101.785 155.525 101.262C155.525 100.73 155.417 100.254 155.203 99.834C154.988 99.414 154.68 99.0827 154.279 98.84C153.887 98.5973 153.415 98.476 152.865 98.476C152.323 98.476 151.852 98.5973 151.451 98.84C151.049 99.0827 150.741 99.414 150.527 99.834C150.312 100.254 150.205 100.73 150.205 101.262C150.205 101.785 150.307 102.256 150.513 102.676C150.727 103.096 151.031 103.432 151.423 103.684C151.824 103.927 152.305 104.048 152.865 104.048ZM161.332 105.224C160.352 105.224 159.591 105.014 159.05 104.594C158.518 104.174 158.242 103.6 158.224 102.872H159.484C159.502 103.161 159.647 103.437 159.918 103.698C160.198 103.95 160.669 104.076 161.332 104.076C161.929 104.076 162.386 103.959 162.704 103.726C163.021 103.483 163.18 103.189 163.18 102.844C163.18 102.536 163.063 102.298 162.83 102.13C162.596 101.953 162.218 101.836 161.696 101.78L160.884 101.696C160.174 101.621 159.596 101.411 159.148 101.066C158.7 100.711 158.476 100.217 158.476 99.582C158.476 99.106 158.597 98.7 158.84 98.364C159.082 98.0187 159.418 97.7573 159.848 97.58C160.277 97.3933 160.772 97.3 161.332 97.3C162.172 97.3 162.853 97.4867 163.376 97.86C163.898 98.2333 164.169 98.7887 164.188 99.526H162.928C162.918 99.2273 162.778 98.9753 162.508 98.77C162.246 98.5553 161.854 98.448 161.332 98.448C160.809 98.448 160.412 98.5553 160.142 98.77C159.871 98.9847 159.736 99.2553 159.736 99.582C159.736 99.862 159.829 100.086 160.016 100.254C160.212 100.422 160.529 100.529 160.968 100.576L161.78 100.66C162.582 100.744 163.226 100.968 163.712 101.332C164.197 101.687 164.44 102.191 164.44 102.844C164.44 103.311 164.304 103.726 164.034 104.09C163.772 104.445 163.408 104.725 162.942 104.93C162.475 105.126 161.938 105.224 161.332 105.224Z" fill="white"></path>
</svg>
