<svg xmlns="http://www.w3.org/2000/svg" width="431" height="45" viewBox="0 0 431 45" fill="none"><path d="M178.089 21.5041C178.065 21.4338 178.042 21.3643 178.018 21.2931C175.985 20.8068 173.509 19.7928 171.999 17.6858C169.692 14.4672 171.712 10.2514 172.688 8.58848C173.009 8.01819 173.379 7.82938 174.955 7.61499C175.555 7.53408 176.397 7.46285 177.313 7.51913C177.835 5.55105 178.684 3.72807 179.918 2.19528C175.447 -0.757367 168.842 0.99245 168.405 1.1919C168.134 1.31589 167.921 1.52607 167.788 1.77845C167.788 1.77889 167.788 1.77823 167.788 1.77845C167.788 1.77867 167.787 1.77977 167.787 1.78021C165.31 6.1763 163.672 11.5028 166.599 15.5849C169.184 19.2036 173.76 20.8903 178.089 21.5041Z" fill="url(#paint0_linear_2935_2815)"></path><path d="M192.577 12.0911C194.561 11.9794 196.533 12.209 198.348 12.923C199.73 7.72748 196.029 1.95435 195.844 1.66942C195.67 1.40385 195.408 1.21038 195.106 1.12596C194.723 1.01867 185.711 -1.42956 181.662 4.21967C179.108 7.78737 178.854 12.7964 179.634 17.1151C179.702 17.0607 179.77 17.0071 179.84 16.9528L179.857 16.9392C179.685 14.8269 179.868 12.1219 181.379 10.0131C184.089 6.22477 190.096 7.80047 190.472 7.9738C190.724 8.09248 191.012 8.2277 191.73 9.7449C192.001 10.3174 192.344 11.1475 192.577 12.0911Z" fill="url(#paint1_linear_2935_2815)"></path><path d="M189.11 10.3482C189.348 10.7826 189.719 11.538 189.972 12.4218C187.222 12.9556 184.572 14.0311 182.414 15.2525C182.461 13.9475 182.74 12.6012 183.483 11.5635C184.76 9.7792 187.725 10.087 189.11 10.3482Z" fill="url(#paint2_linear_2935_2815)"></path><path d="M203.756 28.1118C203.952 27.8629 204.053 27.5499 204.039 27.2315C204.021 26.8305 203.533 17.3859 196.981 15.2278C192.791 13.8498 188.137 15.2164 184.256 17.2891C184.309 17.3269 184.362 17.3647 184.415 17.4034C186.351 16.5663 188.988 15.8733 191.471 16.692C195.203 17.9205 196.012 22.5347 196.186 24.4623C196.242 25.0413 196.202 25.3581 194.914 26.6037C194.465 27.0381 193.802 27.6158 193.001 28.1259C193.716 30.0254 194.082 32.0084 193.97 34.0046C199.272 33.732 203.546 28.3792 203.756 28.1118Z" fill="url(#paint3_linear_2935_2815)"></path><path d="M191.887 25.713C190.591 23.3412 188.795 21.163 186.789 19.3365C188.052 18.9583 189.436 18.7948 190.668 19.201C192.736 19.8817 193.364 22.8373 193.547 24.254C193.216 24.6155 192.629 25.1985 191.887 25.713Z" fill="url(#paint4_linear_2935_2815)"></path><path d="M182.303 43.9102C182.674 43.7695 191.385 40.3803 191.385 33.3979C191.385 28.8981 188.712 24.8353 185.52 21.7635C185.509 21.7976 185.499 21.8319 185.488 21.866L185.477 21.9007C186.861 23.51 188.328 25.8413 188.328 28.4918C188.329 32.4719 184.253 34.6783 182.5 35.4425C181.944 35.6756 181.639 35.7256 180.072 34.8612C179.535 34.5649 178.807 34.1137 178.097 33.5131C176.525 34.8076 174.764 35.7855 172.839 36.2982C174.734 41.3239 181.075 43.7906 181.391 43.9102C181.686 44.0228 182.008 44.0228 182.303 43.9102Z" fill="url(#paint5_linear_2935_2815)"></path><path d="M180.008 31.6901C180.717 32.2406 181.441 32.6241 181.879 32.8316C183.151 32.2169 185.727 30.6973 185.727 28.4927C185.727 27.1789 185.146 25.8932 184.401 24.7922C183.31 27.2923 181.828 29.701 180.008 31.6901Z" fill="url(#paint6_linear_2935_2815)"></path><path d="M176.812 10.138C176.484 12.8228 176.662 15.6483 177.213 18.2988C176.01 17.8512 174.842 17.167 174.103 16.1346C172.824 14.3512 174.029 11.5855 174.702 10.3306C175.165 10.2392 175.946 10.1204 176.812 10.138Z" fill="url(#paint7_linear_2935_2815)"></path><path d="M170.233 24.2258C170.29 23.7448 170.423 22.9454 170.714 22.1029C173.172 23.2725 175.896 23.9875 178.478 24.268C177.686 25.289 176.685 26.2035 175.49 26.5975C173.422 27.2799 171.202 25.2626 170.233 24.2258Z" fill="url(#paint8_linear_2935_2815)"></path><path d="M170.142 34.0153C173.598 34.0153 178.367 31.4527 181.702 24.3912L181.547 24.3965C177.992 30.3465 172.779 31.1852 167.977 25.632C167.545 25.1309 167.48 24.8016 167.745 23.2559C167.852 22.6342 168.052 21.7398 168.412 20.8156C166.7 19.6952 165.221 18.3049 164.155 16.6358C160.025 20.0153 159.671 26.8904 159.655 27.2316C159.641 27.55 159.742 27.863 159.938 28.1119C160.153 28.3863 164.648 34.0162 170.142 34.0153Z" fill="url(#paint9_linear_2935_2815)"></path><path d="M6.46223 25.0789V42.6583H0V4.32306H6.46223V19.1095H25.7394V4.32306H32.2016V42.6583H25.7394V25.0789H6.46223Z" fill="url(#paint10_linear_2935_2815)"></path><path fill-rule="evenodd" clip-rule="evenodd" d="M49.1166 32.8007L44.7504 42.6583H37.4667L56.1962 2.18724L74.9805 42.6583H67.6421L63.2454 32.8007H49.1166ZM61.4334 27.3242H50.9925L56.1962 15.1665L61.4334 27.3242Z" fill="url(#paint11_linear_2935_2815)"></path><path fill-rule="evenodd" clip-rule="evenodd" d="M97.2961 27.4451L108.137 42.6583H100.305L90.6592 28.1457H86.6689V42.6583H80.2067V4.32306H92.0359C94.8471 4.32306 97.275 4.81594 99.3196 5.8017C101.364 6.78747 102.952 8.17484 104.084 9.96382C105.252 11.7163 105.837 13.7973 105.837 16.207C105.837 18.6166 105.252 20.7159 104.084 22.5049C102.952 24.2939 101.364 25.6813 99.3196 26.667C98.6823 26.9743 98.0078 27.2336 97.2961 27.4451ZM86.6689 9.90905H91.762C93.2589 9.90905 94.555 10.1646 95.6503 10.6758C96.7456 11.1869 97.6036 11.9171 98.2243 12.8663C98.8449 13.8156 99.1553 14.9839 99.1553 16.3713C99.1553 17.7221 98.8449 18.8905 98.2243 19.8762C97.6036 20.8255 96.7456 21.5557 95.6503 22.0668C94.555 22.5414 93.2589 22.7787 91.762 22.7787H86.6689V9.90905Z" fill="url(#paint12_linear_2935_2815)"></path><path d="M118.089 42.6583L120.718 19.3286L132.382 39.0986L144.102 19.3286L146.731 42.6583H153.412L148.155 2.4063L132.382 28.4195L116.665 2.4063L111.408 42.6583H118.089Z" fill="url(#paint13_linear_2935_2815)"></path><path d="M246.632 4.32306H240.279V30.0624L212.294 2.4063V42.6583H218.647V16.9189L246.632 44.5751V4.32306Z" fill="url(#paint14_linear_2935_2815)"></path><path d="M284.485 4.32306H277.092L268.165 20.6977L259.294 4.32306H251.9L264.934 26.5575V42.6583H271.506V26.5027L284.485 4.32306Z" fill="url(#paint15_linear_2935_2815)"></path><path d="M313.422 25.0789V42.6583H306.96V4.32306H313.422V19.1095H332.7V4.32306H339.162V42.6583H332.7V25.0789H313.422Z" fill="url(#paint16_linear_2935_2815)"></path><path fill-rule="evenodd" clip-rule="evenodd" d="M356.077 32.8007L351.711 42.6583H344.427L363.156 2.18724L381.941 42.6583H374.602L370.206 32.8007H356.077ZM357.953 27.3242H368.394L363.156 15.1665L357.953 27.3242Z" fill="url(#paint17_linear_2935_2815)"></path><path d="M393.739 4.32306H387.167V42.6583H393.739V4.32306Z" fill="url(#paint18_linear_2935_2815)"></path><path fill-rule="evenodd" clip-rule="evenodd" d="M413.523 28.1457H409.532V42.6583H403.07V4.32306H414.899C417.71 4.32306 420.138 4.81594 422.183 5.8017C424.227 6.78747 425.816 8.17484 426.947 9.96382C428.116 11.7163 428.7 13.7973 428.7 16.207C428.7 18.6166 428.116 20.7159 426.947 22.5049C425.816 24.2939 424.227 25.6813 422.183 26.667C421.546 26.9743 420.871 27.2336 420.159 27.4451L431 42.6583H423.169L413.523 28.1457ZM409.532 9.90905H414.625C416.122 9.90905 417.418 10.1646 418.514 10.6758C419.609 11.1869 420.467 11.9171 421.088 12.8663C421.708 13.8156 422.019 14.9839 422.019 16.3713C422.019 17.7221 421.708 18.8905 421.088 19.8762C420.467 20.8255 419.609 21.5557 418.514 22.0668C417.418 22.5414 416.122 22.7787 414.625 22.7787H409.532V9.90905Z" fill="url(#paint19_linear_2935_2815)"></path><defs><linearGradient id="paint0_linear_2935_2815" x1="-64.7163" y1="23.2694" x2="502.723" y2="65.3481" gradientUnits="userSpaceOnUse"><stop stop-color="#B4B4B4"></stop><stop offset="0.515625" stop-color="white"></stop><stop offset="1" stop-color="#B4B4B4"></stop></linearGradient><linearGradient id="paint1_linear_2935_2815" x1="-64.7163" y1="23.2694" x2="502.723" y2="65.3481" gradientUnits="userSpaceOnUse"><stop stop-color="#B4B4B4"></stop><stop offset="0.515625" stop-color="white"></stop><stop offset="1" stop-color="#B4B4B4"></stop></linearGradient><linearGradient id="paint2_linear_2935_2815" x1="-64.7163" y1="23.2694" x2="502.723" y2="65.3481" gradientUnits="userSpaceOnUse"><stop stop-color="#B4B4B4"></stop><stop offset="0.515625" stop-color="white"></stop><stop offset="1" stop-color="#B4B4B4"></stop></linearGradient><linearGradient id="paint3_linear_2935_2815" x1="-64.7163" y1="23.2694" x2="502.723" y2="65.3481" gradientUnits="userSpaceOnUse"><stop stop-color="#B4B4B4"></stop><stop offset="0.515625" stop-color="white"></stop><stop offset="1" stop-color="#B4B4B4"></stop></linearGradient><linearGradient id="paint4_linear_2935_2815" x1="-64.7163" y1="23.2694" x2="502.723" y2="65.3481" gradientUnits="userSpaceOnUse"><stop stop-color="#B4B4B4"></stop><stop offset="0.515625" stop-color="white"></stop><stop offset="1" stop-color="#B4B4B4"></stop></linearGradient><linearGradient id="paint5_linear_2935_2815" x1="-64.7163" y1="23.2694" x2="502.723" y2="65.3481" gradientUnits="userSpaceOnUse"><stop stop-color="#B4B4B4"></stop><stop offset="0.515625" stop-color="white"></stop><stop offset="1" stop-color="#B4B4B4"></stop></linearGradient><linearGradient id="paint6_linear_2935_2815" x1="-64.7163" y1="23.2694" x2="502.723" y2="65.3481" gradientUnits="userSpaceOnUse"><stop stop-color="#B4B4B4"></stop><stop offset="0.515625" stop-color="white"></stop><stop offset="1" stop-color="#B4B4B4"></stop></linearGradient><linearGradient id="paint7_linear_2935_2815" x1="-64.7163" y1="23.2694" x2="502.723" y2="65.3481" gradientUnits="userSpaceOnUse"><stop stop-color="#B4B4B4"></stop><stop offset="0.515625" stop-color="white"></stop><stop offset="1" stop-color="#B4B4B4"></stop></linearGradient><linearGradient id="paint8_linear_2935_2815" x1="-64.7163" y1="23.2694" x2="502.723" y2="65.3481" gradientUnits="userSpaceOnUse"><stop stop-color="#B4B4B4"></stop><stop offset="0.515625" stop-color="white"></stop><stop offset="1" stop-color="#B4B4B4"></stop></linearGradient><linearGradient id="paint9_linear_2935_2815" x1="-64.7163" y1="23.2694" x2="502.723" y2="65.3481" gradientUnits="userSpaceOnUse"><stop stop-color="#B4B4B4"></stop><stop offset="0.515625" stop-color="white"></stop><stop offset="1" stop-color="#B4B4B4"></stop></linearGradient><linearGradient id="paint10_linear_2935_2815" x1="-64.7163" y1="23.2694" x2="502.723" y2="65.3481" gradientUnits="userSpaceOnUse"><stop stop-color="#B4B4B4"></stop><stop offset="0.515625" stop-color="white"></stop><stop offset="1" stop-color="#B4B4B4"></stop></linearGradient><linearGradient id="paint11_linear_2935_2815" x1="-64.7163" y1="23.2694" x2="502.723" y2="65.3481" gradientUnits="userSpaceOnUse"><stop stop-color="#B4B4B4"></stop><stop offset="0.515625" stop-color="white"></stop><stop offset="1" stop-color="#B4B4B4"></stop></linearGradient><linearGradient id="paint12_linear_2935_2815" x1="-64.7163" y1="23.2694" x2="502.723" y2="65.3481" gradientUnits="userSpaceOnUse"><stop stop-color="#B4B4B4"></stop><stop offset="0.515625" stop-color="white"></stop><stop offset="1" stop-color="#B4B4B4"></stop></linearGradient><linearGradient id="paint13_linear_2935_2815" x1="-64.7163" y1="23.2694" x2="502.723" y2="65.3481" gradientUnits="userSpaceOnUse"><stop stop-color="#B4B4B4"></stop><stop offset="0.515625" stop-color="white"></stop><stop offset="1" stop-color="#B4B4B4"></stop></linearGradient><linearGradient id="paint14_linear_2935_2815" x1="-64.7163" y1="23.2694" x2="502.723" y2="65.3481" gradientUnits="userSpaceOnUse"><stop stop-color="#B4B4B4"></stop><stop offset="0.515625" stop-color="white"></stop><stop offset="1" stop-color="#B4B4B4"></stop></linearGradient><linearGradient id="paint15_linear_2935_2815" x1="-64.7163" y1="23.2694" x2="502.723" y2="65.3481" gradientUnits="userSpaceOnUse"><stop stop-color="#B4B4B4"></stop><stop offset="0.515625" stop-color="white"></stop><stop offset="1" stop-color="#B4B4B4"></stop></linearGradient><linearGradient id="paint16_linear_2935_2815" x1="-64.7163" y1="23.2694" x2="502.723" y2="65.3481" gradientUnits="userSpaceOnUse"><stop stop-color="#B4B4B4"></stop><stop offset="0.515625" stop-color="white"></stop><stop offset="1" stop-color="#B4B4B4"></stop></linearGradient><linearGradient id="paint17_linear_2935_2815" x1="-64.7163" y1="23.2694" x2="502.723" y2="65.3481" gradientUnits="userSpaceOnUse"><stop stop-color="#B4B4B4"></stop><stop offset="0.515625" stop-color="white"></stop><stop offset="1" stop-color="#B4B4B4"></stop></linearGradient><linearGradient id="paint18_linear_2935_2815" x1="-64.7163" y1="23.2694" x2="502.723" y2="65.3481" gradientUnits="userSpaceOnUse"><stop stop-color="#B4B4B4"></stop><stop offset="0.515625" stop-color="white"></stop><stop offset="1" stop-color="#B4B4B4"></stop></linearGradient><linearGradient id="paint19_linear_2935_2815" x1="-64.7163" y1="23.2694" x2="502.723" y2="65.3481" gradientUnits="userSpaceOnUse"><stop stop-color="#B4B4B4"></stop><stop offset="0.515625" stop-color="white"></stop><stop offset="1" stop-color="#B4B4B4"></stop></linearGradient></defs></svg>